<?xml version="1.0" encoding="utf-8"?>
<!-- Generator: Adobe Illustrator 23.0.1, SVG Export Plug-In . SVG Version: 6.00 Build 0)  -->
<svg version="1.1" id="Capa_1" xmlns="http://www.w3.org/2000/svg" xmlns:xlink="http://www.w3.org/1999/xlink" x="0px" y="0px"
	 viewBox="0 0 520 519" style="enable-background:new 0 0 520 519;" xml:space="preserve">
<style type="text/css">
	.st0{fill:#FFFFFF;}
</style>
<g>
	<g>
		<g>
			<path class="st0" d="M356,3.5H164C75.6,3.5,4,75.1,4,163.5v192c0,88.4,71.6,160,160,160h192c88.4,0,160-71.6,160-160v-192
				C516,75.1,444.4,3.5,356,3.5z M468,355.5c0,61.8-50.2,112-112,112H164c-61.8,0-112-50.2-112-112v-192c0-61.8,50.2-112,112-112
				h192c61.8,0,112,50.2,112,112V355.5z"/>
		</g>
	</g>
	<g>
		<g>
			<path class="st0" d="M260,131.5c-70.7,0-128,57.3-128,128s57.3,128,128,128s128-57.3,128-128S330.7,131.5,260,131.5z M260,339.5
				c-44.1,0-80-35.9-80-80c0-44.1,35.9-80,80-80s80,35.9,80,80C340,303.6,304.1,339.5,260,339.5z"/>
		</g>
	</g>
	<g>
		<g>
			<circle class="st0" cx="397.6" cy="121.9" r="17.1"/>
		</g>
	</g>
</g>
</svg>
