<?xml version="1.0" encoding="utf-8"?>
<!-- Generator: Adobe Illustrator 23.0.1, SVG Export Plug-In . SVG Version: 6.00 Build 0)  -->
<svg version="1.1" id="Capa_1" xmlns="http://www.w3.org/2000/svg" xmlns:xlink="http://www.w3.org/1999/xlink" x="0px" y="0px"
	 viewBox="0 0 443.1 430.1" style="enable-background:new 0 0 443.1 430.1;" xml:space="preserve">
<style type="text/css">
	.st0{fill:#FFFFFF;}
</style>
<g>
	<path id="LinkedIn" class="st0" d="M436.6,261.5v159h-92.2V272.2c0-37.3-13.3-62.7-46.7-62.7c-25.5,0-40.6,17.1-47.3,33.7
		c-2.4,5.9-3.1,14.2-3.1,22.5v154.9h-92.2c0,0,1.2-251.3,0-277.3h92.2v39.3c-0.2,0.3-0.4,0.6-0.6,0.9h0.6v-0.9
		c12.3-18.9,34.1-45.8,83.1-45.8C391.1,136.7,436.6,176.4,436.6,261.5z M58.7,9.6C27.1,9.6,6.5,30.3,6.5,57.5
		c0,26.6,20,47.9,51,47.9h0.6c32.2,0,52.2-21.3,52.2-47.9C109.6,30.3,90.2,9.6,58.7,9.6z M12,420.6h92.2V143.2H12V420.6z"/>
</g>
</svg>
