<svg id="Calque_1" data-name="Calque 1" xmlns="http://www.w3.org/2000/svg" viewBox="0 0 576 228.33"><defs><style>.cls-1{fill:#fff;}</style></defs><title>logo_white</title><g id="Logo"><polygon id="E" class="cls-1" points="576 14.87 576 1.32 433.69 1.32 420.14 1.32 420.14 14.87 420.14 157.18 420.14 170.73 420.14 214.78 420.14 228.33 433.69 228.33 576 228.33 576 214.78 433.69 214.78 433.69 170.73 508.24 170.73 508.24 157.18 433.69 157.18 433.69 14.87 576 14.87"/><g id="O"><path class="cls-1" d="M299,16.84a77.93,77.93,0,1,0,77.93,77.93A77.93,77.93,0,0,0,299,16.84Zm0,142.31c-37.43,0-64.38-27-64.38-64.38S261.57,30.39,299,30.39s64.38,27,64.38,64.38S336.43,159.15,299,159.15Z" transform="translate(-11 -16.84)"/><rect class="cls-1" x="233.79" y="214.78" width="108.42" height="13.55"/></g><polygon id="Z" class="cls-1" points="155.86 1.32 0 1.32 0 14.87 138.92 14.87 0 214.78 0 228.33 155.86 228.33 155.86 214.78 16.94 214.78 155.86 14.87 155.86 1.32"/></g></svg>