<?xml version="1.0" encoding="utf-8"?>
<!-- Generator: Adobe Illustrator 23.0.1, SVG Export Plug-In . SVG Version: 6.00 Build 0)  -->
<svg version="1.1" id="Calque_1" xmlns="http://www.w3.org/2000/svg" xmlns:xlink="http://www.w3.org/1999/xlink" x="0px" y="0px"
	 viewBox="0 0 660.3 260.2" style="enable-background:new 0 0 660.3 260.2;" xml:space="preserve">
<style type="text/css">
	.st0{fill:#1F404D;}
</style>
<title>logo</title>
<g id="Logo">
	<polygon id="E" class="st0" points="660.3,15.5 660.3,0 497.2,0 481.6,0 481.6,15.5 481.6,178.7 481.6,194.2 481.6,244.7 
		481.6,260.2 497.2,260.2 660.3,260.2 660.3,244.7 497.2,244.7 497.2,194.2 582.6,194.2 582.6,178.7 497.2,178.7 497.2,15.5 	"/>
	<g id="O">
		<path class="st0" d="M330.2,0.2c-49.3,0-89.3,40-89.4,89.3s40,89.3,89.3,89.3c49.3,0,89.3-40,89.4-89.3c0,0,0,0,0,0
			C419.5,40.2,379.5,0.2,330.2,0.2z M330.2,163.3c-42.9,0-73.8-30.9-73.8-73.8s30.9-73.8,73.8-73.8S404,46.6,404,89.5
			S373.1,163.3,330.2,163.3L330.2,163.3z"/>
		<rect x="268" y="244.7" class="st0" width="124.3" height="15.5"/>
	</g>
	<polygon id="Z" class="st0" points="178.7,0 0,0 0,15.5 159.3,15.5 0,244.7 0,260.2 178.7,260.2 178.7,244.7 19.4,244.7 
		178.7,15.5 	"/>
</g>
</svg>
